<svg id="Layer_1" data-name="Layer 1" xmlns="http://www.w3.org/2000/svg" viewBox="0 0 237.6 299.16"><defs><style>.cls-1{font-size:100px;fill:#383838;font-family:DimaBarf-Bold, Dima Barf;font-weight:700;}.cls-2{fill:#3283c5;}.cls-3{fill:#0f4d82;}.cls-4{fill:none;stroke:#0f4d82;stroke-miterlimit:10;stroke-width:5px;}</style></defs><text class="cls-1" transform="translate(0 253.86)">Blazar</text><path class="cls-2" d="M258,464.88q6.12-8,12.51-16.09,11.4-14.48,22.75-28.11a58.72,58.72,0,0,0,3.87-5.64,57.61,57.61,0,0,0,6.16-14.5c1.17-4.14,2.45-8.35,3.87-12.63a303.07,303.07,0,0,1,18.5-44c-3.74,6-7.91,12.2-12.56,18.53A302.25,302.25,0,0,1,285.57,395l-3.86,10.17q-5.15,14.09-10.89,28.67Q264.51,449.81,258,464.88Z" transform="translate(-184.76 -311.21)"/><path class="cls-3" d="M281.78,401.43a44.87,44.87,0,0,0-7.44-7.66,45.5,45.5,0,0,0-9.45-5.88c-4.84-1-9.44.54-11.64,3.84a8.75,8.75,0,0,0-1.43,4.78,17.58,17.58,0,0,0,2.9,7.66c6.49,9.44,20.17,8.25,21,8.16-7.76,2.64-16.12,1.18-21.75-4a21.11,21.11,0,0,1-6.48-12.95,16.12,16.12,0,0,1,2.56-7.86c3.87-5.92,10.85-7.05,13.64-7.51a25.92,25.92,0,0,1,8.87.13,28.65,28.65,0,0,1,15,8.28,91.93,91.93,0,0,0,24.64,22.85s20.14,8.48,18.1-10.55a21.05,21.05,0,0,0-20.94-14.54,19.19,19.19,0,0,1,6.61-1.05A20.89,20.89,0,0,1,329.63,391s13.72,12.22.75,27.13a24.73,24.73,0,0,1-9.36,4.37c-13.36,3-24.38-6.93-25.79-8.24Z" transform="translate(-184.76 -311.21)"/><path class="cls-3" d="M279.88,403.05a51.36,51.36,0,0,1-3.08,6.57,2,2,0,0,1-1.48,1,22,22,0,0,1-5.12.1,20.74,20.74,0,0,1-10.71-4.08,12.31,12.31,0,0,1-3.36-3.57,11.5,11.5,0,0,1-1.64-5.18,10.82,10.82,0,0,1,.15-2.51,1.82,1.82,0,0,1,.11-.4,8,8,0,0,1,10-4.62l.24.1A51.85,51.85,0,0,1,279.44,401a2,2,0,0,1,.44,2Z" transform="translate(-184.76 -311.21)"/><path class="cls-3" d="M228.88,404.4" transform="translate(-184.76 -311.21)"/><path class="cls-3" d="M308.79,389.83l-3.69,11.93a2.29,2.29,0,0,0,.7,2.4,34.74,34.74,0,0,0,6.29,4.33c3.59,1.91,7,3.76,10.92,2.78a8.13,8.13,0,0,0,4.23-2.46,8.59,8.59,0,0,0,1.94-6.24,2.23,2.23,0,0,0-.19-.77,23,23,0,0,0-3.72-5.8,24.83,24.83,0,0,0-13.88-7.72A2.26,2.26,0,0,0,308.79,389.83Z" transform="translate(-184.76 -311.21)"/><circle class="cls-4" cx="109.57" cy="91.99" r="89.49"/></svg>